<svg width="560" height="164" viewBox="0 0 560 164" fill="none" xmlns="http://www.w3.org/2000/svg">
<path d="M120.713 142.604L150.832 94.2322C151.319 93.4488 150.88 92.2954 150.095 92.2954H87.8035C87.0036 92.2954 86.5695 93.4851 87.086 94.2618L119.258 142.635C119.642 143.211 120.344 143.197 120.713 142.604Z" fill="white" stroke="black" stroke-width="3"/>
<path d="M149.969 89.4071L119.522 69.4721C118.991 69.1246 118.374 69.1395 117.853 69.5113L87.8718 90.9138C86.5653 91.8463 86.5163 94.3905 87.785 95.4172L117.711 119.628C118.307 120.111 119.049 120.102 119.639 119.605L150.141 93.927C151.409 92.8601 151.311 90.2861 149.969 89.4071Z" fill="white" stroke="black" stroke-width="3"/>
<path d="M120.713 96.4981L150.832 52.5231C151.319 51.811 150.88 50.7625 150.095 50.7625H87.8035C87.0036 50.7625 86.5695 51.8442 87.086 52.5503L119.258 96.5255C119.642 97.0495 120.344 97.036 120.713 96.4981Z" fill="white" stroke="black" stroke-width="3"/>
<path d="M149.969 48.819L119.522 32.5082C118.991 32.2242 118.374 32.2362 117.853 32.5405L87.8718 50.0514C86.5653 50.8145 86.5163 52.8963 87.785 53.7361L117.711 73.5452C118.307 73.94 119.049 73.9328 119.639 73.5263L150.141 52.517C151.409 51.644 151.311 49.5379 149.969 48.819Z" fill="white" stroke="black" stroke-width="3"/>
<path fill-rule="evenodd" clip-rule="evenodd" d="M169.372 47.0947V115.995H191.276C194.157 115.969 197.017 115.507 199.76 114.623C201.786 113.982 203.715 113.066 205.494 111.901C206.02 111.553 206.53 111.183 207.023 110.79C209.131 109.139 210.849 107.039 212.053 104.639C212.902 102.948 213.459 101.123 213.699 99.2434C213.824 98.3175 213.887 97.3548 213.887 96.3553C213.887 96.2771 213.886 96.1989 213.886 96.1207C213.892 94.7657 213.746 93.4143 213.452 92.0919C213.323 91.5174 213.161 90.9505 212.969 90.3939C212.358 88.6275 211.504 87.0345 210.407 85.615C209.731 84.7759 208.972 84.0077 208.142 83.322C207.603 82.8743 207.041 82.455 206.459 82.0659C205.357 81.3189 204.167 80.7142 202.916 80.2662C202.444 80.0993 201.964 79.9576 201.477 79.8417V79.6992C202.169 79.3986 202.849 79.0721 203.517 78.7204C204.204 78.356 204.837 77.9812 205.415 77.5962C205.521 77.5256 205.626 77.4538 205.731 77.381C206.784 76.6405 207.741 75.7709 208.581 74.7924C208.707 74.6477 208.829 74.501 208.95 74.3524C209.905 73.1589 210.66 71.8159 211.183 70.3769C211.57 69.3183 211.826 68.2163 211.948 67.0953C212.009 66.5507 212.044 66.0034 212.053 65.4554C212.053 65.3773 212.054 65.2991 212.054 65.2209C212.054 62.1034 211.442 59.4211 210.22 57.1739C208.966 54.8712 207.29 52.9784 205.19 51.4956C203.367 50.2191 201.36 49.2317 199.239 48.5678C198.829 48.4366 198.415 48.3161 197.998 48.2063C195.296 47.4957 192.518 47.1224 189.725 47.0947H169.372ZM178.115 108.566V83.7687H191.981C193.26 83.8071 194.532 83.9839 195.774 84.296C196.239 84.4147 196.699 84.5548 197.151 84.7156C198.332 85.1275 199.447 85.7067 200.465 86.4359C200.765 86.6533 201.056 86.8845 201.335 87.1288C202.53 88.2078 203.484 89.5306 204.132 91.0094C204.776 92.4567 205.098 94.1055 205.098 95.956C205.098 96.0422 205.097 96.1285 205.095 96.2147C205.101 97.1881 204.997 98.159 204.784 99.1087C204.607 99.8917 204.341 100.652 203.991 101.374C203.254 102.887 202.259 104.165 201.006 105.207C199.802 106.199 198.443 106.985 196.985 107.532C196.884 107.57 196.783 107.607 196.682 107.643C195.052 108.227 193.329 108.535 191.511 108.566H178.115ZM190.242 76.4816H178.115V54.5717H190.007C191.68 54.6005 193.344 54.8226 194.966 55.2337C196.008 55.4935 197.017 55.8713 197.975 56.3598C198.42 56.5889 198.852 56.8449 199.267 57.1265C200.487 58.0075 201.492 59.1566 202.205 60.4865C202.629 61.2818 202.929 62.1383 203.094 63.0258C203.229 63.7184 203.3 64.4595 203.309 65.249C203.309 65.302 203.31 65.355 203.31 65.408C203.315 66.2537 203.221 67.0971 203.031 67.921C202.851 68.6968 202.565 69.4437 202.181 70.1404C201.448 71.4762 200.438 72.6382 199.22 73.548C198.047 74.4496 196.731 75.1456 195.328 75.6065C195.231 75.6388 195.134 75.6701 195.036 75.7005C193.483 76.1874 191.869 76.4504 190.242 76.4816Z" fill="black" stroke="black" stroke-width="0.25" stroke-linecap="round"/>
<path fill-rule="evenodd" clip-rule="evenodd" d="M254.592 64.7895H228.598V72.4091H245.896V108.421H228.598V115.992H271.186V108.421H254.592V64.7895ZM244.768 51.3501C244.763 51.9501 244.851 52.5473 245.029 53.1198C245.24 53.7814 245.593 54.3887 246.061 54.8992C246.808 55.7198 247.89 56.1846 249.308 56.2938C249.534 56.3109 249.76 56.3193 249.986 56.319C250.487 56.3227 250.986 56.2762 251.478 56.1804C252.07 56.0602 252.592 55.8625 253.044 55.5873C253.356 55.3983 253.639 55.1667 253.888 54.8992C254.662 54.0634 255.121 52.9808 255.185 51.8395C255.197 51.6767 255.204 51.5134 255.204 51.3501C255.206 50.878 255.157 50.4071 255.057 49.9458C255 49.6831 254.923 49.4249 254.828 49.1734C254.637 48.6574 254.347 48.1847 253.973 47.7826C253.886 47.6898 253.795 47.6012 253.7 47.5171C253.421 47.2397 253.103 47.0055 252.755 46.8222C252.559 46.7171 252.356 46.6252 252.148 46.5469C251.783 46.4115 251.404 46.3163 251.019 46.263C250.677 46.2148 250.331 46.1911 249.986 46.1922C249.598 46.1905 249.211 46.22 248.829 46.2804C248.478 46.3361 248.134 46.4253 247.801 46.5469C247.505 46.6543 247.22 46.7899 246.95 46.9521C246.686 47.1101 246.443 47.2998 246.226 47.5171C245.727 47.9871 245.348 48.5716 245.121 49.2209C244.913 49.8155 244.796 50.4388 244.774 51.0691C244.77 51.1627 244.768 51.2564 244.768 51.3501V51.3501Z" fill="black" stroke="black" stroke-width="0.25" stroke-linecap="round"/>
<path fill-rule="evenodd" clip-rule="evenodd" d="M305.594 64.7925V52.394H296.851V64.7925H283.501V71.5602H296.851V99.3859C296.846 100.594 296.915 101.8 297.056 103C297.205 104.224 297.434 105.357 297.744 106.4C297.849 106.755 297.967 107.107 298.096 107.454C298.927 109.678 300.063 111.484 301.504 112.873C302.946 114.292 304.646 115.325 306.604 115.972C308.229 116.502 309.916 116.815 311.621 116.905C312.056 116.93 312.491 116.942 312.926 116.942C314.284 116.942 315.641 116.879 316.993 116.753C318.356 116.627 319.648 116.437 320.87 116.185C321.599 116.055 322.323 115.896 323.039 115.709C323.448 115.603 323.853 115.485 324.255 115.357C325.18 115.061 325.98 114.72 326.654 114.335C326.732 114.291 326.81 114.245 326.887 114.198L325.665 107.998C325.523 108.032 325.38 108.065 325.237 108.098C324.812 108.194 324.314 108.302 323.743 108.422C323.702 108.431 323.661 108.439 323.62 108.448C323.081 108.56 322.54 108.665 321.999 108.763C321.654 108.826 321.31 108.887 320.965 108.945C319.981 109.104 318.994 109.238 318.003 109.347C317.168 109.44 316.328 109.495 315.487 109.51C315.354 109.512 315.221 109.513 315.089 109.513C314.139 109.516 313.192 109.423 312.261 109.235C311.987 109.179 311.715 109.114 311.446 109.04C310.32 108.734 309.282 108.167 308.414 107.383C307.849 106.89 307.369 106.306 306.992 105.655C306.741 105.225 306.524 104.774 306.346 104.307C305.956 103.302 305.718 102.087 305.631 100.661C305.606 100.237 305.593 99.8113 305.594 99.3859V71.5602H324.96V64.7925H305.594Z" fill="black" stroke="black" stroke-width="0.25" stroke-linecap="round"/>
<path fill-rule="evenodd" clip-rule="evenodd" d="M349.027 96.1208H340.143C340.189 97.8953 340.468 99.6559 340.971 101.357C341.264 102.332 341.639 103.279 342.093 104.189C343.3 106.602 344.937 108.708 347.005 110.506C349.15 112.417 351.62 113.922 354.297 114.949C354.599 115.066 354.902 115.179 355.208 115.286C358.296 116.38 361.546 116.94 364.82 116.942C367.586 116.937 370.339 116.547 372.999 115.783C375.181 115.177 377.266 114.262 379.193 113.068C379.58 112.825 379.961 112.571 380.333 112.305C382.495 110.79 384.257 108.882 385.621 106.579C386.597 104.908 387.231 103.058 387.485 101.136C387.607 100.258 387.668 99.3729 387.665 98.4865C387.674 97.0332 387.514 95.5839 387.189 94.1679C386.884 92.851 386.403 91.5816 385.761 90.394C384.52 88.0928 382.815 86.0781 380.755 84.4792C378.643 82.7362 376.302 81.2951 373.799 80.1964C371.26 79.0767 368.721 78.1224 366.183 77.3335C365.387 77.0875 364.593 76.8309 363.804 76.564C362.956 76.2781 362.112 75.9824 361.272 75.6772C359.687 75.1078 358.165 74.3738 356.731 73.4869C356.638 73.4288 356.546 73.37 356.454 73.3105C355.18 72.5201 354.051 71.5142 353.117 70.3371C352.987 70.1724 352.862 70.0043 352.74 69.8332C352.067 68.8695 351.613 67.7682 351.411 66.6078C351.302 66.0088 351.243 65.4015 351.236 64.7926C351.231 63.9318 351.322 63.0732 351.507 62.233C351.683 61.4434 351.963 60.681 352.34 59.9661C353.066 58.591 354.085 57.3951 355.325 56.4645C356.547 55.518 357.95 54.8079 359.532 54.3343C361.115 53.8614 362.737 53.6249 364.397 53.6249C365.428 53.6203 366.457 53.7091 367.471 53.8904C368.324 54.0441 369.16 54.28 369.968 54.595C371.296 55.1074 372.529 55.8399 373.617 56.7621C373.825 56.9399 374.026 57.1248 374.222 57.3164C375.356 58.436 376.28 59.7522 376.951 61.2018C376.998 61.3021 377.044 61.4029 377.088 61.5042C377.81 63.1285 378.296 64.9347 378.546 66.9228H387.478C387.415 63.7678 386.741 60.9127 385.456 58.3573C384.21 55.8505 382.466 53.6277 380.333 51.8261C378.157 50.0027 375.675 48.5851 373.004 47.6403C373.002 47.6397 373.001 47.639 372.999 47.6384C370.239 46.6443 367.329 46.1399 364.397 46.1478C361.67 46.1527 358.96 46.5756 356.359 47.4019C353.962 48.1399 351.7 49.2659 349.662 50.7358C349.511 50.845 349.362 50.9562 349.214 51.0692C347.126 52.665 345.39 54.6793 344.115 56.985C342.814 59.3194 342.164 61.9694 342.164 64.935C342.156 66.2524 342.299 67.5664 342.592 68.8504C342.901 70.1956 343.415 71.4846 344.115 72.6719C345.415 74.8647 347.1 76.7656 349.168 78.3744C351.129 79.8845 353.252 81.1702 355.496 82.2074C355.65 82.2796 355.805 82.3507 355.96 82.4207C357.997 83.3396 360.073 84.1674 362.182 84.9017C362.559 85.0323 362.937 85.1596 363.316 85.2836C364.607 85.7013 365.892 86.1387 367.17 86.5958C367.617 86.7556 368.064 86.9174 368.51 87.0814C369.984 87.6181 371.404 88.2924 372.753 89.0953C372.995 89.2398 373.234 89.3887 373.47 89.5421C374.973 90.5519 376.203 91.7825 377.16 93.2336C377.768 94.171 378.185 95.2205 378.387 96.3214C378.528 97.0663 378.597 97.8232 378.593 98.5815C378.598 99.3924 378.514 100.201 378.342 100.994C378.152 101.869 377.824 102.708 377.37 103.479C376.58 104.825 375.505 105.981 374.222 106.863C373.069 107.676 371.793 108.297 370.444 108.7C370.24 108.762 370.034 108.82 369.827 108.874C368.191 109.299 366.509 109.513 364.82 109.513C363.56 109.518 362.302 109.406 361.063 109.179C360.338 109.045 359.623 108.864 358.921 108.637C357.175 108.085 355.554 107.192 354.15 106.011C352.756 104.856 351.605 103.432 350.766 101.822C350.173 100.691 349.722 99.4895 349.423 98.2461C349.252 97.5456 349.119 96.8361 349.027 96.1208V96.1208Z" fill="black" stroke="black" stroke-width="0.25" stroke-linecap="round"/>
<path fill-rule="evenodd" clip-rule="evenodd" d="M394.622 64.7925L405.433 115.995H412.296L420.146 84.6206L421.415 76.6706L422.732 84.6206L430.676 115.995H437.538L448.349 64.7925H440.64L435 97.4456L433.73 105.491L432.367 97.4456L424.282 64.7925H418.688L410.557 97.4456L409.288 104.78L408.254 97.4456L402.331 64.7925H394.622Z" fill="black" stroke="black" stroke-width="0.25" stroke-linecap="round"/>
<path fill-rule="evenodd" clip-rule="evenodd" d="M491.735 115.995H500.807V115.238C500.52 114.509 500.276 113.762 500.076 113.004C499.876 112.256 499.702 111.459 499.553 110.612C499.532 110.49 499.511 110.368 499.491 110.246C499.301 109.101 499.166 107.946 499.087 106.787C499.044 106.135 499.022 105.481 499.022 104.828V81.0241C499.028 79.7526 498.914 78.4834 498.682 77.2337C498.442 75.9412 498.034 74.686 497.47 73.5005C496.436 71.3547 495.026 69.5563 493.24 68.1051C491.422 66.6856 489.275 65.6208 486.799 64.9108C485.037 64.4121 483.23 64.0903 481.405 63.9503C480.525 63.8804 479.644 63.8458 478.762 63.8466C477.258 63.8409 475.755 63.9517 474.267 64.1781C472.91 64.3846 471.574 64.7172 470.277 65.1715C469.089 65.5876 467.936 66.0981 466.828 66.6979C465.812 67.248 464.85 67.8935 463.955 68.6256C462.983 69.4215 462.102 70.3242 461.328 71.3169C460.799 72.0004 460.333 72.7313 459.936 73.5005C459.35 74.6226 458.932 75.8257 458.695 77.0709C458.578 77.704 458.514 78.3459 458.503 78.9898H467.246C467.248 77.9083 467.514 76.844 468.021 75.8904C468.516 74.945 469.201 74.1134 470.033 73.4481C470.09 73.4015 470.148 73.3557 470.207 73.3105C471.147 72.5849 472.299 72.0015 473.662 71.5602C474.467 71.3033 475.294 71.1239 476.133 71.0243C476.849 70.9378 477.57 70.8954 478.291 70.8973C479.213 70.8941 480.134 70.9592 481.047 71.0921C481.809 71.2036 482.562 71.376 483.298 71.6077C484.041 71.8401 484.761 72.1408 485.449 72.5061C486.027 72.8143 486.574 73.1788 487.081 73.5945C488.116 74.4784 488.915 75.5354 489.48 76.7656C490.043 77.9958 490.325 79.3839 490.325 80.9301V84.9521H480.83C479.14 84.948 477.452 85.0351 475.771 85.2128C474.238 85.3742 472.717 85.6348 471.218 85.993C469.865 86.3147 468.54 86.7461 467.256 87.2829C466.067 87.78 464.93 88.3942 463.861 89.1166C461.824 90.5361 460.249 92.3029 459.137 94.4169C458.392 95.8536 457.895 97.4073 457.668 99.0117C457.533 99.9345 457.466 100.866 457.469 101.799C457.457 103.542 457.757 105.273 458.355 106.909C458.465 107.206 458.585 107.498 458.714 107.786C459.533 109.616 460.745 111.24 462.263 112.541C463.314 113.48 464.487 114.271 465.751 114.891C466.412 115.219 467.091 115.509 467.786 115.759C469.205 116.265 470.677 116.606 472.173 116.776C473.143 116.888 474.119 116.944 475.095 116.942C476.246 116.945 477.395 116.855 478.531 116.673C478.955 116.604 479.377 116.52 479.796 116.422C481.269 116.075 482.663 115.602 483.98 115.002C485.265 114.402 486.447 113.708 487.528 112.92C488.381 112.3 489.194 111.627 489.962 110.903C490.133 110.742 490.301 110.578 490.466 110.412C490.551 111.389 490.687 112.362 490.875 113.324C490.888 113.387 490.9 113.449 490.913 113.511C491.075 114.302 491.281 114.987 491.532 115.567C491.595 115.712 491.662 115.855 491.735 115.995V115.995ZM482.24 91.1518H490.325V101.515C489.972 102.218 489.548 102.882 489.06 103.497C488.806 103.818 488.538 104.128 488.257 104.425C487.526 105.195 486.714 105.882 485.835 106.473C485.612 106.624 485.385 106.77 485.154 106.909C484.131 107.513 483.05 108.012 481.927 108.397C481.657 108.491 481.386 108.579 481.112 108.661C479.972 108.998 478.798 109.207 477.613 109.282C477.197 109.31 476.781 109.324 476.364 109.324C474.729 109.324 473.284 109.117 472.029 108.704C471.986 108.69 471.942 108.676 471.899 108.661C471.288 108.454 470.698 108.188 470.137 107.868C469.621 107.573 469.14 107.22 468.703 106.815C467.862 106.065 467.209 105.124 466.799 104.071C466.45 103.175 466.243 102.229 466.187 101.269C466.172 101.036 466.164 100.802 466.165 100.568C466.165 99.2437 466.407 98.0607 466.893 97.0191C467.385 95.974 468.109 95.057 469.009 94.3394C469.017 94.3336 469.024 94.3278 469.031 94.322C470.146 93.4142 471.59 92.7041 473.365 92.1917C473.697 92.0964 474.031 92.0098 474.367 91.932C475.409 91.6939 476.465 91.5159 477.528 91.399C478.615 91.2749 479.77 91.1977 480.994 91.1673C481.409 91.1569 481.825 91.1518 482.24 91.1518Z" fill="black" stroke="black" stroke-width="0.25" stroke-linecap="round"/>
<path fill-rule="evenodd" clip-rule="evenodd" d="M516.037 64.7925V135.682H524.733V111.074C525.356 111.765 526.032 112.406 526.754 112.991C527.48 113.578 528.25 114.108 529.058 114.577C530.063 115.137 531.122 115.593 532.218 115.94C532.672 116.085 533.131 116.214 533.594 116.327C535.27 116.737 537.08 116.942 539.022 116.942C542.219 116.942 545.063 116.28 547.555 114.955C550.046 113.629 552.137 111.8 553.829 109.465C555.027 107.796 556.006 105.979 556.742 104.057C557.104 103.124 557.418 102.173 557.684 101.208C558.561 98.0368 559 94.6215 559 90.9619V89.9685C559.006 87.9111 558.867 85.8558 558.584 83.8182C558.376 82.3409 558.076 80.8784 557.684 79.4395C557.246 77.8153 556.663 76.2345 555.94 74.7168C555.347 73.4748 554.641 72.2912 553.829 71.1813C552.177 68.9126 550.02 67.0651 547.53 65.7869C545.765 64.8884 543.86 64.2994 541.898 64.0453C540.898 63.9105 539.891 63.8442 538.882 63.8466C537.688 63.8428 536.495 63.9319 535.314 64.1132C534.768 64.1985 534.225 64.3068 533.687 64.4378C532.573 64.7059 531.488 65.0838 530.447 65.5659C530.054 65.7491 529.669 65.9489 529.293 66.1649C528.35 66.6713 527.468 67.2824 526.661 67.9869C525.834 68.709 525.079 69.5093 524.404 70.3769L523.981 64.7925H516.037ZM550.304 89.9685V90.9619C550.304 93.4546 550.03 95.8365 549.482 98.1075C549.175 99.4007 548.745 100.661 548.198 101.871C547.843 102.65 547.431 103.401 546.966 104.118C545.87 105.823 544.388 107.242 542.642 108.259C540.887 109.284 538.804 109.797 536.39 109.797C535.594 109.799 534.798 109.741 534.011 109.622C533.425 109.533 532.845 109.401 532.278 109.229C531.04 108.85 529.919 108.33 528.916 107.667C528.034 107.095 527.242 106.393 526.566 105.585C525.875 104.761 525.261 103.874 524.733 102.935V78.2794C525.314 77.2281 526.007 76.2443 526.801 75.3458C527.575 74.4701 528.479 73.7198 529.48 73.1215C530.389 72.5219 531.416 72.0645 532.56 71.7492C533.359 71.5318 534.177 71.3903 535.003 71.3266C535.433 71.2925 535.865 71.2757 536.296 71.2763C537.307 71.2705 538.315 71.3676 539.306 71.566C540.46 71.7952 541.57 72.2084 542.595 72.7901C544.35 73.8 545.807 75.1568 546.966 76.8606C547.799 78.1521 548.465 79.5445 548.95 81.0047C549.154 81.6104 549.331 82.2248 549.482 82.8461C549.969 84.8757 550.24 86.9517 550.291 89.0391C550.3 89.3488 550.304 89.6587 550.304 89.9685V89.9685Z" fill="black" stroke="black" stroke-width="0.25" stroke-linecap="round"/>
<g opacity="0.6">
<path opacity="0.6" d="M34.1218 73.4532L0.271393 88.9294L34.1218 109.034L67.959 88.9294L34.1218 73.4532Z" fill="#010101"/>
</g>
<g opacity="0.45">
<path opacity="0.45" d="M0.470612 88.7642L34.3211 108.869V32.3034L0.470612 88.7642Z" fill="#010101"/>
</g>
<g opacity="0.8">
<path opacity="0.8" d="M34.3195 32.6356V109.201L68.1566 89.0964L34.3195 32.6356Z" fill="#010101"/>
</g>
<g opacity="0.45">
<path opacity="0.45" d="M0 95.2092L33.8505 143.149V115.314L0 95.2092Z" fill="#010101"/>
</g>
<g opacity="0.8">
<path opacity="0.8" d="M33.8488 115.646V143.482L67.7126 95.5415L33.8488 115.646Z" fill="#010101"/>
</g>
<path d="M73.9291 38.023L69.5473 45.3025L94.2547 40.4105L87.0744 16.1842L82.6926 23.4638C56.1634 7.27915 35.502 24.865 49.0253 36.7897C44.8705 28.4067 61.3258 29.4185 73.9291 38.023V38.023Z" fill="black"/>
<path d="M74.859 126.025L79.2133 118.73L54.5211 123.712L61.7961 147.912L66.1504 140.617C92.7462 156.705 113.343 139.044 99.7714 127.168C103.959 135.536 87.4975 134.584 74.859 126.025V126.025Z" fill="black"/>
</svg>
